<svg width="176" height="64" viewBox="0 0 176 64" fill="none" xmlns="http://www.w3.org/2000/svg">
<path d="M47.8826 22.9715H39.6758V19.0876H60.6781V22.9715H52.4566V43.8168H47.8826V22.9715ZM107.58 20.1455C109.08 20.7789 110.356 21.8469 111.243 23.2115C112.117 24.6196 112.56 26.2522 112.517 27.9086C112.555 29.5582 112.112 31.1832 111.243 32.586C110.357 33.9497 109.081 35.0149 107.58 35.6423C105.805 36.38 103.894 36.7339 101.972 36.6806H96.3929V43.8168H91.7943V19.0876H101.972C103.895 19.0437 105.806 19.4042 107.58 20.1455ZM106.325 31.5379C106.851 31.0947 107.266 30.5348 107.537 29.903C107.807 29.2711 107.926 28.5848 107.884 27.8988C107.926 27.2128 107.807 26.5264 107.537 25.8946C107.266 25.2627 106.851 24.7028 106.325 24.2597C105.293 23.414 103.773 22.9895 101.766 22.9862H96.3733V32.7819H101.766C103.77 32.7885 105.289 32.3738 106.325 31.5379ZM116.714 19.0876H121.312V43.8168H116.714V19.0876ZM145.021 38.0912H132.647L130.196 43.8168H125.46L136.608 19.0876H141.133L152.306 43.8168H147.497L145.021 38.0912ZM143.501 34.4766L138.834 23.7013L134.201 34.4766H143.501ZM171.068 43.7825L166.013 36.5729C165.696 36.6006 165.376 36.6121 165.057 36.6071H159.469V43.8168H154.875V19.0876H165.057C166.979 19.0444 168.888 19.4048 170.661 20.1455C172.16 20.7805 173.435 21.8481 174.323 23.2115C175.196 24.6201 175.637 26.2527 175.593 27.9086C175.638 29.6113 175.162 31.2872 174.23 32.7134C173.268 34.0979 171.896 35.1475 170.308 35.7157L176 43.8168L171.068 43.7825ZM169.406 24.1911C168.367 23.3454 166.847 22.9209 164.847 22.9177H159.454V32.826H164.847C166.847 32.826 168.367 32.3999 169.406 31.5379C169.929 31.0895 170.342 30.5265 170.611 29.8927C170.881 29.259 171 28.5715 170.96 27.8841C171.003 27.1985 170.884 26.5124 170.615 25.8806C170.345 25.2487 169.931 24.6886 169.406 24.245V24.1911Z" fill="#008237"/>
<path d="M68.1444 42.5254C66.1612 41.4783 64.508 39.9013 63.3694 37.9704C62.204 35.9973 61.6037 33.7422 61.6339 31.4514C61.6038 29.1622 62.2042 26.9087 63.3694 24.9373C64.5092 23.006 66.1619 21.4278 68.1444 20.3774C70.2564 19.2988 72.5944 18.7363 74.9663 18.7363C77.3382 18.7363 79.6762 19.2988 81.7881 20.3774C83.7649 21.4268 85.4164 22.997 86.5631 24.9177C87.731 26.8949 88.3299 29.1559 88.2937 31.4514C88.33 33.7485 87.7312 36.0111 86.5631 37.99C85.418 39.9108 83.7661 41.4799 81.7881 42.5254C79.6771 43.6072 77.3387 44.1713 74.9663 44.1713C72.5938 44.1713 70.2554 43.6072 68.1444 42.5254ZM79.4202 39.0284C80.7134 38.3044 81.782 37.2385 82.5088 35.9476C83.2726 34.5822 83.6632 33.04 83.6412 31.4759C83.6626 29.9135 83.272 28.3729 82.5088 27.0091C81.7893 25.6988 80.7202 24.6137 79.4202 23.8744C78.0492 23.1447 76.5197 22.763 74.9663 22.763C73.4128 22.763 71.8833 23.1447 70.5123 23.8744C69.2055 24.602 68.1275 25.679 67.3992 26.9846C66.636 28.3485 66.2454 29.889 66.2668 31.4514C66.233 33.0215 66.6152 34.5727 67.3747 35.9476C68.1033 37.2517 69.1814 38.3271 70.4878 39.0529C71.8588 39.7826 73.3883 40.1644 74.9418 40.1644C76.4952 40.1644 78.0247 39.7826 79.3957 39.0529L79.4202 39.0284Z" fill="#008237"/>
<path d="M33.5627 38.0323C30.2223 35.7265 27.4386 32.7056 25.4142 29.1894C23.3898 25.6732 22.1758 21.7503 21.8604 17.7062L21.8359 17.334H17.4629L17.4923 17.765C17.8143 22.5571 19.2275 27.2125 21.6243 31.376C24.0211 35.5395 27.3381 39.101 31.3223 41.7889L31.6802 42.0289L31.8959 41.6567L33.6804 38.5612L33.8667 38.2429L33.5627 38.0323Z" fill="#008237"/>
<path d="M16.9323 39.5157C12.1284 39.5027 7.38545 40.5901 3.06796 42.6944L2.68066 42.8806L2.89637 43.2528L4.68089 46.3433L4.86718 46.6666L5.20055 46.505C8.86855 44.7729 12.8752 43.8746 16.9323 43.8746C20.9893 43.8746 24.996 44.7729 28.664 46.505L28.9973 46.6666L29.1836 46.3433L30.9681 43.2528L31.1838 42.8806L30.7965 42.6944C26.4791 40.5901 21.7361 39.5027 16.9323 39.5157Z" fill="#EF7D00"/>
<path d="M16.3744 17.765L16.4038 17.334H12.0308L12.0062 17.7062C11.6909 21.7503 10.4769 25.6732 8.45249 29.1894C6.42812 32.7056 3.64439 35.7265 0.303955 38.0323L0 38.2429L0.186295 38.5613L1.961 41.6567L2.17671 42.0289L2.5346 41.7889C6.52055 39.1021 9.83944 35.541 12.238 31.3774C14.6365 27.2139 16.0513 22.558 16.3744 17.765Z" fill="#008237"/>
</svg>
