<svg width="994" height="994" viewBox="0 0 994 994" fill="none" xmlns="http://www.w3.org/2000/svg">
<path opacity="0.05" fill-rule="evenodd" clip-rule="evenodd" d="M747.66 923.934C893.872 837.906 992 678.912 992 497C992 496.768 992 496.537 992 496.305H930.05L930.05 496.652C930.05 655.72 844.356 794.772 716.615 870.162L747.66 923.934ZM746.461 924.637L715.417 870.867C651.205 908.486 576.447 930.05 496.652 930.05C418.654 930.05 345.468 909.446 282.241 873.383L251.369 926.854C323.753 968.305 407.61 992 497 992C587.972 992 673.212 967.459 746.461 924.637ZM714.417 869.135C650.499 906.583 576.083 928.05 496.652 928.05C419.018 928.05 346.174 907.543 283.241 871.651L499.555 496.984L714.417 869.135ZM715.615 868.43L500.768 496.305H928.05L928.05 496.652C928.05 654.98 842.758 793.386 715.615 868.43ZM499.555 494.203L713.502 123.636C649.79 86.5174 575.704 65.2545 496.652 65.2545C419.397 65.2545 346.884 85.5622 284.161 121.131L499.555 494.203ZM283.161 119.398C346.178 83.6596 419.032 63.2545 496.652 63.2545C576.069 63.2545 650.496 84.6148 714.502 121.904L745.246 68.6544C672.27 26.27 587.469 2 497 2C408.112 2 324.696 25.4292 252.591 66.449L283.161 119.398ZM251.384 67.1381L281.953 120.086C151.778 194.465 63.8881 334.4 63.258 494.915H2.0043C2.75957 311.791 102.953 152.132 251.384 67.1381ZM282.953 121.818L498.361 494.915H65.258C65.8881 335.14 153.376 195.852 282.953 121.818ZM282.034 870.96L498.342 496.305H65.2547L65.2546 496.652C65.2546 656.776 152.493 796.524 282.034 870.96ZM928.047 494.915H500.749L714.702 124.338C841.884 198.984 927.424 336.935 928.047 494.915ZM930.047 494.915C929.424 336.194 843.482 197.597 715.702 122.605L746.447 69.3543C892.768 154.888 991.247 313.371 991.996 494.915H930.047ZM250.164 926.161L281.034 872.692C150.896 797.911 63.2546 657.516 63.2546 496.652L63.2547 496.305H2.00048C2.00016 496.537 2 496.768 2 497C2 680.494 101.842 840.668 250.164 926.161ZM0.00428236 494.915H3.72186e-05V496.305H0.000475746C0.000158616 496.537 0 496.768 0 497C0 771.486 222.514 994 497 994C771.486 994 994 771.486 994 497C994 496.768 994 496.537 994 496.305H994V494.915H993.996C992.872 221.388 770.79 0 497 0C223.21 0 1.12787 221.388 0.00428236 494.915Z" fill="#F2F2F2"/>
</svg>
